Coordinates
version=1
nRows=19
nColumns=24
inDegrees=yes

Units are S.I. units (second, meters, Newtons, ...)
Angles are in degrees.

endheader
time	pelvis_tilt	pelvis_list	pelvis_rotation	pelvis_tx	pelvis_ty	pelvis_tz	hip_flexion_r	hip_adduction_r	hip_rotation_r	knee_angle_r	ankle_angle_r	subtalar_angle_r	mtp_angle_r	hip_flexion_l	hip_adduction_l	hip_rotation_l	knee_angle_l	ankle_angle_l	subtalar_angle_l	mtp_angle_l	lumbar_extension	lumbar_bending	lumbar_rotation
      0.45400000	     -3.53596304	     -0.24440418	      1.40578868	     -0.71504228	      1.01313970	      0.27188349	     17.38718491	      1.17961102	     -0.46812269	      2.33383082	      0.93063381	     -9.15217929	      5.44367923	     -8.34680322	      3.72348216	      8.04897382	    -13.05109797	      6.27961615	     -9.39378624	      9.06780416	     -9.86815844	      8.45210561	     -8.32488485
      0.45816667	     -3.51039982	     -0.29561304	      1.41443120	     -0.70957675	      1.01260129	      0.27209961	     17.25399321	      1.31387953	     -0.20953543	      2.38128084	      0.61219387	     -9.10562666	      5.49653460	     -8.45938556	      3.63645131	      7.88861030	    -13.53143002	      6.27909509	     -9.07930087	      9.09360669	     -9.88007971	      8.53621233	     -8.22076459
      0.46233333	     -3.50645664	     -0.36066630	      1.43523698	     -0.70411393	      1.01202928	      0.27234499	     17.15478227	      1.46091254	      0.05903660	      2.33608632	      0.34397464	     -9.12482334	      5.58973543	     -8.49121230	      3.52077913	      7.61452364	    -14.12649149	      6.36574061	     -8.58567262	      9.20194025	     -9.85411345	      8.60096459	     -8.16882175
      0.46650000	     -3.49807190	     -0.44503461	      1.43995449	     -0.69862144	      1.01146280	      0.27260011	     17.06755019	      1.63111720	      0.33106116	      2.19825438	      0.01843306	     -9.15141796	      5.70759419	     -8.53060347	      3.38778045	      7.36034778	    -14.71598968	      6.40771970	     -8.13998579	      9.39245856	     -9.83716788	      8.71229155	     -8.12515097
      0.47066667	     -3.50028957	     -0.54325739	      1.43662245	     -0.69310220	      1.01089976	      0.27288618	     17.00016419	      1.81833742	      0.61915398	      1.98717872	     -0.33987331	     -9.22284854	      5.84605522	     -8.54553632	      3.23677047	      7.08646454	    -15.33106592	      6.42502313	     -7.68775644	      9.66656890	     -9.80375628	      8.83369447	     -8.07292424
      0.47483333	     -3.45123831	     -0.66251951	      1.42892834	     -0.68753633	      1.01041370	      0.27318141	     16.87505583	      2.02899366	      0.91465261	      1.72988399	     -0.71973947	     -9.33311411	      5.99766571	     -8.60556019	      3.05701264	      6.78220724	    -15.96138909	      6.41779414	     -7.19917856	     10.01616489	     -9.82609518	      8.98870193	     -8.01089118
      0.47900000	     -3.46284444	     -0.78960130	      1.40581423	     -0.68197798	      1.00982694	      0.27351271	     16.84293561	      2.25194645	      1.21892948	      1.37547729	     -1.11036589	     -9.49159961	      6.15957300	     -8.57369223	      2.87057763	      6.45807458	    -16.64889996	      6.39621006	     -6.71155520	     10.43380504	     -9.77968625	      9.14582057	     -7.94239325
      0.48316667	     -3.40580337	     -0.93132296	      1.37950789	     -0.67637274	      1.00935332	      0.27387682	     16.73387523	      2.49431915	      1.51862493	      0.98952094	     -1.51459706	     -9.68885345	      6.34253134	     -8.60752841	      2.65786942	      6.09956429	    -17.34432694	      6.34905988	     -6.18588053	     10.95887526	     -9.81251273	      9.32255273	     -7.87465137
      0.48733333	     -3.40351403	     -1.08366352	      1.34809055	     -0.67075136	      1.00879716	      0.27424508	     16.70358314	      2.74678866	      1.81185161	      0.52843408	     -1.91188098	     -9.92975468	      6.55124340	     -8.55377645	      2.43314866	      5.72654151	    -18.09671800	      6.28215452	     -5.64032105	     11.61413770	     -9.76957538	      9.50392944	     -7.79806550
      0.49150000	     -3.34667761	     -1.24279105	      1.29813244	     -0.66511827	      1.00832385	      0.27465204	     16.62149483	      3.01274430	      2.11297556	      0.02908748	     -2.28753531	    -10.15679281	      6.74685452	     -8.54594427	      2.19550355	      5.31136723	    -18.86844890	      6.15502792	     -5.10168113	     12.28467612	     -9.80754621	      9.70223518	     -7.72041092
      0.49566667	     -3.32435782	     -1.40635261	      1.25828029	     -0.65944892	      1.00781202	      0.27502566	     16.59455983	      3.27836849	      2.37582043	     -0.53304091	     -2.67462342	    -10.48681337	      8.49894037	     -8.50109995	      1.95935956	      4.98195087	    -19.61823336	      5.79392071	     -4.82711382	     18.66122706	     -9.78541557	      9.92375038	     -7.64911527
      0.49983333	     -3.28654537	     -1.56918761	      1.20884063	     -0.65379285	      1.00732536	      0.27543518	     16.57746769	      3.54576186	      2.58777164	     -1.17096952	     -2.94349531	    -10.64490599	      8.52994714	     -8.41867269	      1.70780205	      4.54133233	    -20.48827929	      5.61420953	     -4.22927991	     18.75510498	     -9.78998056	     10.11745344	     -7.58421689
      0.50400000	     -3.27431946	     -1.73082924	      1.15339309	     -0.64813702	      1.00679718	      0.27587026	     16.59668989	      3.81471705	      2.82761707	     -1.84192933	     -3.20777170	    -10.93400304	      8.56578278	     -8.28221847	      1.45309656	      4.09530100	    -21.40328654	      5.39709114	     -3.64814482	     18.94060577	     -9.76707003	     10.31333595	     -7.50511456
      0.50816667	     -3.24196949	     -1.90518151	      1.09779119	     -0.64247402	      1.00630287	      0.27631697	     16.60560422	      4.09807961	      3.03904550	     -2.54941325	     -3.43605540	    -11.24277195	      8.60995282	     -8.13692630	      1.17391266	      3.62349634	    -22.37163354	      5.15455472	     -3.02306156	     19.23258024	     -9.76688957	     10.52129263	     -7.42457171
      0.51233333	     -3.20748699	     -2.09061467	      1.04905363	     -0.63680176	      1.00582885	      0.27675182	     16.62761111	      4.39070342	      3.21193919	     -3.30232180	     -3.63278361	    -11.57005481	      8.66523346	     -7.96888370	      0.87435905	      3.16046286	    -23.37772503	      4.86316891	     -2.37076381	     19.69319734	     -9.77358225	     10.75662218	     -7.33780002
      0.51650000	     -3.18431903	     -2.26720796	      0.98760688	     -0.63112717	      1.00533159	      0.27722556	     16.65536207	      4.67874129	      3.43336236	     -4.05281483	     -3.76027797	    -11.96225555	      9.23955011	     -7.76167839	      0.57783198	      2.67971234	    -24.41525048	      4.35779412	     -1.92629306	     25.14783308	     -9.76182482	     10.96654737	     -7.25044276
      0.52066667	     -3.16279402	     -2.43339948	      0.92241832	     -0.62548292	      1.00483261	      0.27768852	     16.73253856	      4.95212498	      3.54622560	     -4.91464834	     -3.70498554	    -12.09977766	      9.25181765	     -7.51494357	      0.28330052	      2.17808664	    -25.53183351	      3.94814643	     -1.29479475	     25.24239604	     -9.75394205	     11.15676040	     -7.20326623
      0.52483333	     -3.14661983	     -2.60378030	      0.87633467	     -0.61985328	      1.00434068	      0.27812306	     16.82112838	      5.22509173	      3.63828639	     -5.79591749	     -3.64987313	    -12.33880855	      9.26391187	     -7.22689549	     -0.02630078	      1.70631259	    -26.69994192	      3.50220338	     -0.63774397	     25.45652311	     -9.74303122	     11.37672384	     -7.12863799
      0.52900000	     -3.11977575	     -2.78375025	      0.82409430	     -0.61423382	      1.00385458	      0.27858632	     16.89945639	      5.51100999	      3.73204053	     -6.68770589	     -3.50633535	    -12.55947480	      9.27488778	     -6.91736058	     -0.36076264	      1.21070583	    -27.92311165	      3.00000153	      0.01629272	     25.76148524	     -9.74504270	     11.59238390	     -7.05822676
